#N canvas 130 130 1920 997 12;
#X obj 621 431 spigot;
#X obj 608 786 makenote 110 100;
#X obj 614 851 noteout 1;
#X obj 614 655 random 12;
#X obj 608 735 + 60;
#X obj 690 400 tgl 19 0 empty empty empty 0 -10 0 12 #fcfcfc #000000 #000000 0 1;
#X obj 809 155 tgl 19 0 empty empty empty 0 -10 0 12 #fcfcfc #000000 #000000 0 1;
#X floatatom 690 610 5 0 0 0 - - - 0;
#X floatatom 654 701 5 0 0 0 - - - 0;
#X floatatom 669 735 5 0 0 0 - - - 0;
#X floatatom 730 731 5 0 0 0 - - - 0;
#X floatatom 930 167 5 0 0 0 - - - 0;
#X obj 621 548 sel 0;
#X floatatom 679 487 5 0 0 0 - - - 0;
#X obj 618 510 random 3;
#X obj 875 417 spigot;
#X obj 868 837 noteout 1;
#X obj 868 641 random 12;
#X obj 943 386 tgl 19 0 empty empty empty 0 -10 0 12 #fcfcfc #000000 #000000 0 1;
#X floatatom 944 596 5 0 0 0 - - - 0;
#X floatatom 908 687 5 0 0 0 - - - 0;
#X floatatom 923 721 5 0 0 0 - - - 0;
#X floatatom 984 717 5 0 0 0 - - - 0;
#X obj 875 534 sel 0;
#X floatatom 933 473 5 0 0 0 - - - 0;
#X obj 872 496 random 3;
#X obj 1124 405 spigot;
#X obj 1117 825 noteout 1;
#X obj 1117 629 random 12;
#X obj 1193 374 tgl 19 0 empty empty empty 0 -10 0 12 #fcfcfc #000000 #000000 0 1;
#X floatatom 1193 584 5 0 0 0 - - - 0;
#X floatatom 1157 675 5 0 0 0 - - - 0;
#X floatatom 1172 709 5 0 0 0 - - - 0;
#X floatatom 1233 705 5 0 0 0 - - - 0;
#X obj 1124 522 sel 0;
#X floatatom 1182 461 5 0 0 0 - - - 0;
#X obj 1121 484 random 3;
#X obj 862 772 makenote 80 250;
#X obj 1111 760 makenote 75 250;
#X obj 862 721 + 36;
#X obj 1111 709 + 36;
#X obj 853 222 metro 100;
#X connect 0 0 14 0;
#X connect 1 0 2 0;
#X connect 1 1 2 1;
#X connect 3 0 4 0;
#X connect 4 0 1 0;
#X connect 5 0 0 1;
#X connect 6 0 41 0;
#X connect 7 0 3 1;
#X connect 8 0 4 1;
#X connect 9 0 1 1;
#X connect 10 0 1 2;
#X connect 11 0 41 1;
#X connect 12 0 3 0;
#X connect 13 0 14 1;
#X connect 14 0 12 0;
#X connect 15 0 25 0;
#X connect 17 0 39 0;
#X connect 18 0 15 1;
#X connect 19 0 17 1;
#X connect 20 0 39 1;
#X connect 21 0 37 1;
#X connect 22 0 37 2;
#X connect 23 0 17 0;
#X connect 24 0 25 1;
#X connect 25 0 23 0;
#X connect 26 0 36 0;
#X connect 28 0 40 0;
#X connect 29 0 26 1;
#X connect 30 0 28 1;
#X connect 31 0 40 1;
#X connect 32 0 38 1;
#X connect 33 0 38 2;
#X connect 34 0 28 0;
#X connect 35 0 36 1;
#X connect 36 0 34 0;
#X connect 37 0 16 0;
#X connect 37 1 16 1;
#X connect 38 0 27 0;
#X connect 38 1 27 1;
#X connect 39 0 37 0;
#X connect 40 0 38 0;
#X connect 41 0 0 0;
#X connect 41 0 15 0;
#X connect 41 0 26 0;
