#N canvas 325 138 2560 1349 10;
#X obj 805 60 key;
#X msg 763 247 60;
#X msg 825 249 62, f 4;
#X msg 875 248 64, f 2;
#X msg 913 249 65;
#X msg 982 245 67;
#X msg 1077 245 69;
#X obj 551 778 noteout;
#X obj 591 -3 print touche_pressee;
#X obj 1000 677 print note_midi;
#X obj 547 684 makenote 120 1000;
#X msg 797 222 61;
#X msg 855 216 63;
#X msg 957 223 66;
#X msg 1053 209 68;
#X msg 1129 208 70;
#X obj 944 86 select 113 122 115 101 100 102 116 103 121 104 117 106 107;
#X msg 1211 225 71;
#X msg 1270 232 72;
#X connect 0 0 8 0;
#X connect 0 0 16 0;
#X connect 1 0 9 0;
#X connect 1 0 10 0;
#X connect 2 0 9 0;
#X connect 2 0 10 0;
#X connect 3 0 9 0;
#X connect 3 0 10 0;
#X connect 4 0 9 0;
#X connect 4 0 10 0;
#X connect 5 0 9 0;
#X connect 5 0 10 0;
#X connect 6 0 9 0;
#X connect 6 0 10 0;
#X connect 10 0 7 0;
#X connect 10 1 7 1;
#X connect 11 0 9 0;
#X connect 11 0 10 0;
#X connect 12 0 9 0;
#X connect 12 0 10 0;
#X connect 13 0 9 0;
#X connect 13 0 10 0;
#X connect 14 0 9 0;
#X connect 14 0 10 0;
#X connect 15 0 9 0;
#X connect 15 0 10 0;
#X connect 16 0 1 0;
#X connect 16 1 11 0;
#X connect 16 2 2 0;
#X connect 16 3 12 0;
#X connect 16 4 3 0;
#X connect 16 5 4 0;
#X connect 16 6 13 0;
#X connect 16 7 5 0;
#X connect 16 8 14 0;
#X connect 16 9 6 0;
#X connect 16 10 15 0;
#X connect 16 11 17 0;
#X connect 16 12 18 0;
#X connect 17 0 9 0;
#X connect 17 0 10 0;
#X connect 18 0 9 0;
#X connect 18 0 10 0;
