#N canvas 104 104 1920 997 12;
#X obj 271 135 bng 19 250 50 0 empty empty empty 0 -10 0 12 #fcfcfc #000000 #000000;
#X floatatom 197 387 5 0 0 0 - - - 0;
#X obj 200 452 print;
#X obj 203 305 i;
#X obj 288 389 + 1;
#X msg 330 263 0;
#X obj 672 281 noteout;
#X obj 668 213 makenote 95 500;
#X msg 658 134 60;
#X obj 759 113 bng 19 250 50 0 empty empty empty 0 -10 0 12 #fcfcfc #000000 #000000;
#X connect 0 0 3 0;
#X connect 1 0 2 0;
#X connect 3 0 1 0;
#X connect 3 0 4 0;
#X connect 4 0 3 1;
#X connect 5 0 3 1;
#X connect 7 0 6 0;
#X connect 7 1 6 1;
#X connect 8 0 7 0;
