#N canvas 104 104 1920 997 12;
#X obj 271 135 bng 19 250 50 0 empty empty empty 0 -10 0 12 #fcfcfc #000000 #000000;
#X floatatom 197 387 5 0 0 0 - - - 0;
#X obj 203 305 i;
#X obj 288 389 + 1;
#X msg 330 263 0;
#X obj 672 281 noteout;
#X msg 658 134 60;
#X obj 993 37 bng 19 250 50 0 empty empty empty 0 -10 0 12 #fcfcfc #000000 #000000;
#X obj 668 213 makenote 60 2000;
#X obj 988 201 random 60;
#X obj 999 274 + 68;
#X obj 196 451 print;
#X obj 1008 337 print;
#X obj 950 126 i;
#X connect 0 0 2 0;
#X connect 1 0 11 0;
#X connect 2 0 1 0;
#X connect 2 0 3 0;
#X connect 3 0 2 1;
#X connect 4 0 2 1;
#X connect 6 0 8 0;
#X connect 7 0 13 0;
#X connect 8 0 5 0;
#X connect 8 1 5 1;
#X connect 9 0 10 0;
#X connect 10 0 12 0;
#X connect 13 0 9 0;
